<svg xmlns="http://www.w3.org/2000/svg" width="16.332" height="16.332" viewBox="0 0 16.332 16.332"><defs><style>.a{fill:#fff;}</style></defs><path class="a" d="M8.166,0a8.166,8.166,0,1,0,8.166,8.166A8.175,8.175,0,0,0,8.166,0Zm0,14.971a6.8,6.8,0,1,1,6.8-6.8A6.813,6.813,0,0,1,8.166,14.971Z"/><g transform="translate(5.485 3.721)"><path class="a" d="M226.075,344.96a.823.823,0,0,0-.81.81c0,.014,0,.028,0,.042a.81.81,0,0,0,.837.782h-.027a.817.817,0,0,0,0-1.633Z" transform="translate(-223.563 -337.677)"/><path class="a" d="M174.611,116.647a3.4,3.4,0,0,0-2.552,1.041.532.532,0,0,0-.116.34.565.565,0,0,0,.544.558.574.574,0,0,0,.381-.143,2.227,2.227,0,0,1,1.613-.68c.919,0,1.361.5,1.361,1.082,0,1.252-2.225,1.409-2.225,3.035,0,.395.245,1.123.755,1.123h.014a.5.5,0,0,0,.5-.5c0-.184-.129-.34-.129-.524,0-1.225,2.4-1.395,2.45-3.294C177.2,117.532,176.224,116.647,174.611,116.647Z" transform="translate(-171.944 -116.646)"/></g></svg>