<svg xmlns="http://www.w3.org/2000/svg" width="18" height="18" viewBox="0 0 18 18"><defs><style>.a{fill:#fff;}</style></defs><path class="a" d="M11.25,9.75a.75.75,0,0,0-.75.75v3a.751.751,0,0,1-.75.75H7.5V3A1.512,1.512,0,0,0,6.478,1.574L6.257,1.5H9.75a.751.751,0,0,1,.75.75V4.5a.75.75,0,1,0,1.5,0V2.25A2.253,2.253,0,0,0,9.75,0H1.687a.586.586,0,0,0-.08.016C1.571.013,1.537,0,1.5,0A1.5,1.5,0,0,0,0,1.5V15a1.512,1.512,0,0,0,1.021,1.426l4.513,1.5A1.553,1.553,0,0,0,6,18a1.5,1.5,0,0,0,1.5-1.5v-.75H9.75A2.253,2.253,0,0,0,12,13.5v-3a.75.75,0,0,0-.75-.75Z"/><path class="a" d="M21.03,8.22l-3-3a.75.75,0,0,0-1.28.53V8h-3a.75.75,0,0,0,0,1.5h3v2.25a.75.75,0,0,0,1.28.53l3-3a.749.749,0,0,0,0-1.061Z" transform="translate(-3.25 -1.25)"/></svg>